<mxfile host="app.diagrams.net" modified="2021-08-28T13:58:44.483Z" agent="5.0 (Windows NT 10.0; Win64; x64) AppleWebKit/537.36 (KHTML, like Gecko) Chrome/92.0.4515.159 Safari/537.36" etag="FjGIvGxppVqO_NlKAM2d" version="14.9.9" type="github">
  <diagram id="bMIv9ze5h6GgfTMmupGz" name="column validation">
    <mxGraphModel dx="1038" dy="624" grid="1" gridSize="10" guides="1" tooltips="1" connect="1" arrows="1" fold="1" page="1" pageScale="1" pageWidth="827" pageHeight="1169" math="0" shadow="0">
      <root>
        <mxCell id="0" />
        <mxCell id="1" parent="0" />
        <mxCell id="i9gJvD8DNWFQ0qLjSNJB-4" value="" style="edgeStyle=orthogonalEdgeStyle;rounded=0;orthogonalLoop=1;jettySize=auto;html=1;" edge="1" parent="1" source="i9gJvD8DNWFQ0qLjSNJB-1" target="i9gJvD8DNWFQ0qLjSNJB-3">
          <mxGeometry relative="1" as="geometry" />
        </mxCell>
        <mxCell id="i9gJvD8DNWFQ0qLjSNJB-1" value="Start" style="rounded=1;whiteSpace=wrap;html=1;" vertex="1" parent="1">
          <mxGeometry x="354" y="20" width="120" height="60" as="geometry" />
        </mxCell>
        <mxCell id="i9gJvD8DNWFQ0qLjSNJB-18" value="" style="edgeStyle=orthogonalEdgeStyle;rounded=0;orthogonalLoop=1;jettySize=auto;html=1;" edge="1" parent="1" source="i9gJvD8DNWFQ0qLjSNJB-3" target="i9gJvD8DNWFQ0qLjSNJB-17">
          <mxGeometry relative="1" as="geometry" />
        </mxCell>
        <mxCell id="i9gJvD8DNWFQ0qLjSNJB-3" value="DataFrame,&lt;br&gt;MetaData info" style="shape=parallelogram;perimeter=parallelogramPerimeter;whiteSpace=wrap;html=1;fixedSize=1;" vertex="1" parent="1">
          <mxGeometry x="354" y="120" width="120" height="60" as="geometry" />
        </mxCell>
        <mxCell id="i9gJvD8DNWFQ0qLjSNJB-8" value="" style="edgeStyle=orthogonalEdgeStyle;rounded=0;orthogonalLoop=1;jettySize=auto;html=1;" edge="1" parent="1" source="i9gJvD8DNWFQ0qLjSNJB-5" target="i9gJvD8DNWFQ0qLjSNJB-7">
          <mxGeometry relative="1" as="geometry" />
        </mxCell>
        <mxCell id="i9gJvD8DNWFQ0qLjSNJB-5" value="loop through arr" style="shape=process;whiteSpace=wrap;html=1;backgroundOutline=1;" vertex="1" parent="1">
          <mxGeometry x="354" y="220" width="120" height="60" as="geometry" />
        </mxCell>
        <mxCell id="i9gJvD8DNWFQ0qLjSNJB-10" value="" style="edgeStyle=orthogonalEdgeStyle;rounded=0;orthogonalLoop=1;jettySize=auto;html=1;" edge="1" parent="1" source="i9gJvD8DNWFQ0qLjSNJB-7" target="i9gJvD8DNWFQ0qLjSNJB-9">
          <mxGeometry relative="1" as="geometry" />
        </mxCell>
        <mxCell id="i9gJvD8DNWFQ0qLjSNJB-12" value="" style="edgeStyle=orthogonalEdgeStyle;rounded=0;orthogonalLoop=1;jettySize=auto;html=1;" edge="1" parent="1" source="i9gJvD8DNWFQ0qLjSNJB-7" target="i9gJvD8DNWFQ0qLjSNJB-11">
          <mxGeometry relative="1" as="geometry" />
        </mxCell>
        <mxCell id="i9gJvD8DNWFQ0qLjSNJB-7" value="data type is struct" style="rhombus;whiteSpace=wrap;html=1;" vertex="1" parent="1">
          <mxGeometry x="374" y="320" width="80" height="80" as="geometry" />
        </mxCell>
        <mxCell id="i9gJvD8DNWFQ0qLjSNJB-14" value="" style="edgeStyle=orthogonalEdgeStyle;rounded=0;orthogonalLoop=1;jettySize=auto;html=1;" edge="1" parent="1" source="i9gJvD8DNWFQ0qLjSNJB-9">
          <mxGeometry relative="1" as="geometry">
            <mxPoint x="514" y="480" as="targetPoint" />
          </mxGeometry>
        </mxCell>
        <mxCell id="i9gJvD8DNWFQ0qLjSNJB-16" value="" style="edgeStyle=orthogonalEdgeStyle;rounded=0;orthogonalLoop=1;jettySize=auto;html=1;" edge="1" parent="1" source="i9gJvD8DNWFQ0qLjSNJB-9">
          <mxGeometry relative="1" as="geometry">
            <mxPoint x="414" y="560" as="targetPoint" />
          </mxGeometry>
        </mxCell>
        <mxCell id="i9gJvD8DNWFQ0qLjSNJB-9" value="column contains &lt;br&gt;[ or (" style="rhombus;whiteSpace=wrap;html=1;" vertex="1" parent="1">
          <mxGeometry x="374" y="440" width="80" height="80" as="geometry" />
        </mxCell>
        <mxCell id="i9gJvD8DNWFQ0qLjSNJB-46" style="edgeStyle=orthogonalEdgeStyle;rounded=0;orthogonalLoop=1;jettySize=auto;html=1;entryX=0;entryY=0.5;entryDx=0;entryDy=0;" edge="1" parent="1" source="i9gJvD8DNWFQ0qLjSNJB-11" target="i9gJvD8DNWFQ0qLjSNJB-5">
          <mxGeometry relative="1" as="geometry">
            <mxPoint x="140" y="250" as="targetPoint" />
            <Array as="points">
              <mxPoint x="130" y="360" />
              <mxPoint x="130" y="250" />
            </Array>
          </mxGeometry>
        </mxCell>
        <mxCell id="i9gJvD8DNWFQ0qLjSNJB-11" value="schema = schema of then column and counter = counter + 1" style="shape=process;whiteSpace=wrap;html=1;backgroundOutline=1;" vertex="1" parent="1">
          <mxGeometry x="168" y="330" width="146" height="60" as="geometry" />
        </mxCell>
        <mxCell id="i9gJvD8DNWFQ0qLjSNJB-20" style="edgeStyle=orthogonalEdgeStyle;rounded=0;orthogonalLoop=1;jettySize=auto;html=1;entryX=1;entryY=0.5;entryDx=0;entryDy=0;" edge="1" parent="1" source="i9gJvD8DNWFQ0qLjSNJB-17" target="i9gJvD8DNWFQ0qLjSNJB-5">
          <mxGeometry relative="1" as="geometry">
            <mxPoint x="574" y="250" as="targetPoint" />
            <Array as="points">
              <mxPoint x="607" y="250" />
            </Array>
          </mxGeometry>
        </mxCell>
        <mxCell id="i9gJvD8DNWFQ0qLjSNJB-17" value="Define &lt;br&gt;schema = df.schema, counter = 1 and&lt;br&gt;arr = MetaData&amp;nbsp;.split(&quot;\\.&quot;)" style="shape=process;whiteSpace=wrap;html=1;backgroundOutline=1;" vertex="1" parent="1">
          <mxGeometry x="514" y="120" width="186" height="60" as="geometry" />
        </mxCell>
        <mxCell id="i9gJvD8DNWFQ0qLjSNJB-23" value="" style="edgeStyle=orthogonalEdgeStyle;rounded=0;orthogonalLoop=1;jettySize=auto;html=1;" edge="1" parent="1" source="i9gJvD8DNWFQ0qLjSNJB-21">
          <mxGeometry relative="1" as="geometry">
            <mxPoint x="654" y="480" as="targetPoint" />
          </mxGeometry>
        </mxCell>
        <mxCell id="i9gJvD8DNWFQ0qLjSNJB-25" value="" style="edgeStyle=orthogonalEdgeStyle;rounded=0;orthogonalLoop=1;jettySize=auto;html=1;" edge="1" parent="1" source="i9gJvD8DNWFQ0qLjSNJB-21">
          <mxGeometry relative="1" as="geometry">
            <mxPoint x="554" y="570" as="targetPoint" />
          </mxGeometry>
        </mxCell>
        <mxCell id="i9gJvD8DNWFQ0qLjSNJB-21" value="&lt;span&gt;data type is array&lt;/span&gt;" style="rhombus;whiteSpace=wrap;html=1;" vertex="1" parent="1">
          <mxGeometry x="514" y="440" width="80" height="80" as="geometry" />
        </mxCell>
        <mxCell id="i9gJvD8DNWFQ0qLjSNJB-26" value="Return false" style="ellipse;whiteSpace=wrap;html=1;" vertex="1" parent="1">
          <mxGeometry x="650" y="450" width="120" height="60" as="geometry" />
        </mxCell>
        <mxCell id="i9gJvD8DNWFQ0qLjSNJB-30" value="" style="edgeStyle=orthogonalEdgeStyle;rounded=0;orthogonalLoop=1;jettySize=auto;html=1;" edge="1" parent="1" source="i9gJvD8DNWFQ0qLjSNJB-28" target="i9gJvD8DNWFQ0qLjSNJB-29">
          <mxGeometry relative="1" as="geometry" />
        </mxCell>
        <mxCell id="i9gJvD8DNWFQ0qLjSNJB-34" value="" style="edgeStyle=orthogonalEdgeStyle;rounded=0;orthogonalLoop=1;jettySize=auto;html=1;" edge="1" parent="1" source="i9gJvD8DNWFQ0qLjSNJB-28" target="i9gJvD8DNWFQ0qLjSNJB-33">
          <mxGeometry relative="1" as="geometry" />
        </mxCell>
        <mxCell id="i9gJvD8DNWFQ0qLjSNJB-28" value="counter = length of &lt;br&gt;arr" style="rhombus;whiteSpace=wrap;html=1;" vertex="1" parent="1">
          <mxGeometry x="514" y="570" width="80" height="80" as="geometry" />
        </mxCell>
        <mxCell id="i9gJvD8DNWFQ0qLjSNJB-29" value="Return true" style="ellipse;whiteSpace=wrap;html=1;" vertex="1" parent="1">
          <mxGeometry x="654" y="580" width="120" height="60" as="geometry" />
        </mxCell>
        <mxCell id="i9gJvD8DNWFQ0qLjSNJB-36" value="" style="edgeStyle=orthogonalEdgeStyle;rounded=0;orthogonalLoop=1;jettySize=auto;html=1;" edge="1" parent="1" source="i9gJvD8DNWFQ0qLjSNJB-33" target="i9gJvD8DNWFQ0qLjSNJB-35">
          <mxGeometry relative="1" as="geometry" />
        </mxCell>
        <mxCell id="i9gJvD8DNWFQ0qLjSNJB-40" value="" style="edgeStyle=orthogonalEdgeStyle;rounded=0;orthogonalLoop=1;jettySize=auto;html=1;" edge="1" parent="1" source="i9gJvD8DNWFQ0qLjSNJB-33" target="i9gJvD8DNWFQ0qLjSNJB-39">
          <mxGeometry relative="1" as="geometry" />
        </mxCell>
        <mxCell id="i9gJvD8DNWFQ0qLjSNJB-33" value="element type is struct" style="rhombus;whiteSpace=wrap;html=1;" vertex="1" parent="1">
          <mxGeometry x="514" y="700" width="80" height="80" as="geometry" />
        </mxCell>
        <mxCell id="i9gJvD8DNWFQ0qLjSNJB-35" value="Return false" style="ellipse;whiteSpace=wrap;html=1;" vertex="1" parent="1">
          <mxGeometry x="654" y="710" width="120" height="60" as="geometry" />
        </mxCell>
        <mxCell id="i9gJvD8DNWFQ0qLjSNJB-47" style="edgeStyle=orthogonalEdgeStyle;rounded=0;orthogonalLoop=1;jettySize=auto;html=1;" edge="1" parent="1" source="i9gJvD8DNWFQ0qLjSNJB-39">
          <mxGeometry relative="1" as="geometry">
            <mxPoint x="130" y="350" as="targetPoint" />
          </mxGeometry>
        </mxCell>
        <mxCell id="i9gJvD8DNWFQ0qLjSNJB-39" value="schema = schema of then column and counter = counter + 1" style="shape=process;whiteSpace=wrap;html=1;backgroundOutline=1;" vertex="1" parent="1">
          <mxGeometry x="481" y="830" width="146" height="60" as="geometry" />
        </mxCell>
        <mxCell id="i9gJvD8DNWFQ0qLjSNJB-43" value="" style="edgeStyle=orthogonalEdgeStyle;rounded=0;orthogonalLoop=1;jettySize=auto;html=1;" edge="1" parent="1" source="i9gJvD8DNWFQ0qLjSNJB-41" target="i9gJvD8DNWFQ0qLjSNJB-42">
          <mxGeometry relative="1" as="geometry" />
        </mxCell>
        <mxCell id="i9gJvD8DNWFQ0qLjSNJB-45" value="" style="edgeStyle=orthogonalEdgeStyle;rounded=0;orthogonalLoop=1;jettySize=auto;html=1;" edge="1" parent="1" source="i9gJvD8DNWFQ0qLjSNJB-41" target="i9gJvD8DNWFQ0qLjSNJB-44">
          <mxGeometry relative="1" as="geometry" />
        </mxCell>
        <mxCell id="i9gJvD8DNWFQ0qLjSNJB-41" value="counter = length of &lt;br&gt;arr" style="rhombus;whiteSpace=wrap;html=1;" vertex="1" parent="1">
          <mxGeometry x="374" y="560" width="80" height="80" as="geometry" />
        </mxCell>
        <mxCell id="i9gJvD8DNWFQ0qLjSNJB-42" value="Return false" style="ellipse;whiteSpace=wrap;html=1;" vertex="1" parent="1">
          <mxGeometry x="194" y="570" width="120" height="60" as="geometry" />
        </mxCell>
        <mxCell id="i9gJvD8DNWFQ0qLjSNJB-44" value="Return true" style="ellipse;whiteSpace=wrap;html=1;" vertex="1" parent="1">
          <mxGeometry x="354" y="680" width="120" height="60" as="geometry" />
        </mxCell>
        <mxCell id="i9gJvD8DNWFQ0qLjSNJB-48" value="Yes" style="text;html=1;align=center;verticalAlign=middle;resizable=0;points=[];autosize=1;strokeColor=none;" vertex="1" parent="1">
          <mxGeometry x="324" y="340" width="30" height="20" as="geometry" />
        </mxCell>
        <mxCell id="i9gJvD8DNWFQ0qLjSNJB-49" value="Yes" style="text;html=1;align=center;verticalAlign=middle;resizable=0;points=[];autosize=1;strokeColor=none;" vertex="1" parent="1">
          <mxGeometry x="460" y="460" width="30" height="20" as="geometry" />
        </mxCell>
        <mxCell id="i9gJvD8DNWFQ0qLjSNJB-50" value="Yes" style="text;html=1;align=center;verticalAlign=middle;resizable=0;points=[];autosize=1;strokeColor=none;" vertex="1" parent="1">
          <mxGeometry x="550" y="530" width="30" height="20" as="geometry" />
        </mxCell>
        <mxCell id="i9gJvD8DNWFQ0qLjSNJB-51" value="No" style="text;html=1;align=center;verticalAlign=middle;resizable=0;points=[];autosize=1;strokeColor=none;" vertex="1" parent="1">
          <mxGeometry x="414" y="410" width="30" height="20" as="geometry" />
        </mxCell>
        <mxCell id="i9gJvD8DNWFQ0qLjSNJB-52" value="No" style="text;html=1;align=center;verticalAlign=middle;resizable=0;points=[];autosize=1;strokeColor=none;" vertex="1" parent="1">
          <mxGeometry x="600" y="460" width="30" height="20" as="geometry" />
        </mxCell>
        <mxCell id="i9gJvD8DNWFQ0qLjSNJB-53" value="No" style="text;html=1;align=center;verticalAlign=middle;resizable=0;points=[];autosize=1;strokeColor=none;" vertex="1" parent="1">
          <mxGeometry x="414" y="530" width="30" height="20" as="geometry" />
        </mxCell>
        <mxCell id="i9gJvD8DNWFQ0qLjSNJB-54" value="No" style="text;html=1;align=center;verticalAlign=middle;resizable=0;points=[];autosize=1;strokeColor=none;" vertex="1" parent="1">
          <mxGeometry x="550" y="660" width="30" height="20" as="geometry" />
        </mxCell>
        <mxCell id="i9gJvD8DNWFQ0qLjSNJB-55" value="Yes" style="text;html=1;align=center;verticalAlign=middle;resizable=0;points=[];autosize=1;strokeColor=none;" vertex="1" parent="1">
          <mxGeometry x="600" y="590" width="30" height="20" as="geometry" />
        </mxCell>
        <mxCell id="i9gJvD8DNWFQ0qLjSNJB-56" value="No" style="text;html=1;align=center;verticalAlign=middle;resizable=0;points=[];autosize=1;strokeColor=none;" vertex="1" parent="1">
          <mxGeometry x="600" y="720" width="30" height="20" as="geometry" />
        </mxCell>
        <mxCell id="i9gJvD8DNWFQ0qLjSNJB-57" value="Yes" style="text;html=1;align=center;verticalAlign=middle;resizable=0;points=[];autosize=1;strokeColor=none;" vertex="1" parent="1">
          <mxGeometry x="550" y="790" width="30" height="20" as="geometry" />
        </mxCell>
        <mxCell id="i9gJvD8DNWFQ0qLjSNJB-58" value="No" style="text;html=1;align=center;verticalAlign=middle;resizable=0;points=[];autosize=1;strokeColor=none;" vertex="1" parent="1">
          <mxGeometry x="330" y="580" width="30" height="20" as="geometry" />
        </mxCell>
        <mxCell id="i9gJvD8DNWFQ0qLjSNJB-59" value="Yes" style="text;html=1;align=center;verticalAlign=middle;resizable=0;points=[];autosize=1;strokeColor=none;" vertex="1" parent="1">
          <mxGeometry x="414" y="650" width="30" height="20" as="geometry" />
        </mxCell>
      </root>
    </mxGraphModel>
  </diagram>
</mxfile>
